<svg class="main-svg" xmlns="http://www.w3.org/2000/svg" xmlns:xlink="http://www.w3.org/1999/xlink" width="900" height="500" style="" viewBox="0 0 900 500"><rect x="0" y="0" width="900" height="500" style="fill: rgb(255, 255, 255); fill-opacity: 1;"/><defs id="defs-de9746"><g class="clips"><clipPath id="clipde9746xyplot" class="plotclip"><rect width="643" height="219"/></clipPath><clipPath class="axesclip" id="clipde9746x"><rect x="80" y="0" width="643" height="500"/></clipPath><clipPath class="axesclip" id="clipde9746y"><rect x="0" y="100" width="900" height="219"/></clipPath><clipPath class="axesclip" id="clipde9746xy"><rect x="80" y="100" width="643" height="219"/></clipPath></g><g class="gradients"/><g class="patterns"/></defs><g class="bglayer"/><g class="layer-below"><g class="imagelayer"/><g class="shapelayer"/></g><g class="cartesianlayer"><g class="subplot xy"><g class="layer-subplot"><g class="shapelayer"/><g class="imagelayer"/></g><g class="minor-gridlayer"><g class="x"/><g class="y"/></g><g class="gridlayer"><g class="x"/><g class="y"/></g><g class="zerolinelayer"/><g class="layer-between"><g class="shapelayer"/><g class="imagelayer"/></g><path class="xlines-below"/><path class="ylines-below"/><g class="overlines-below"/><g class="xaxislayer-below"/><g class="yaxislayer-below"/><g class="overaxes-below"/><g class="overplot"><g class="xy" transform="translate(80,100)" clip-path="url(#clipde9746xyplot)"><g class="scatterlayer mlayer"><g class="trace scatter trace89f22d" style="stroke-miterlimit: 2; opacity: 1;"><g class="fills"/><g class="errorbars"><g class="errorbar" style="opacity: 1;"><path class="yerror" d="M31.9,186.97h8m-4,0V188.02m-4,0h8" style="vector-effect: none; stroke-width: 2px; stroke: rgb(218, 165, 27); stroke-opacity: 1;"/></g><g class="errorbar" style="opacity: 1;"><path class="yerror" d="M95.37,186.61h8m-4,0V187.7m-4,0h8" style="vector-effect: none; stroke-width: 2px; stroke: rgb(218, 165, 27); stroke-opacity: 1;"/></g><g class="errorbar" style="opacity: 1;"><path class="yerror" d="M158.83,187.02h8m-4,0V187.8m-4,0h8" style="vector-effect: none; stroke-width: 2px; stroke: rgb(218, 165, 27); stroke-opacity: 1;"/></g><g class="errorbar" style="opacity: 1;"><path class="yerror" d="M222.3,186.91h8m-4,0V187.25m-4,0h8" style="vector-effect: none; stroke-width: 2px; stroke: rgb(218, 165, 27); stroke-opacity: 1;"/></g><g class="errorbar" style="opacity: 1;"><path class="yerror" d="M285.77,185.98h8m-4,0V186.68m-4,0h8" style="vector-effect: none; stroke-width: 2px; stroke: rgb(218, 165, 27); stroke-opacity: 1;"/></g><g class="errorbar" style="opacity: 1;"><path class="yerror" d="M349.23,184.17h8m-4,0V185.62m-4,0h8" style="vector-effect: none; stroke-width: 2px; stroke: rgb(218, 165, 27); stroke-opacity: 1;"/></g><g class="errorbar" style="opacity: 1;"><path class="yerror" d="M412.7,182.24h8m-4,0V183.51m-4,0h8" style="vector-effect: none; stroke-width: 2px; stroke: rgb(218, 165, 27); stroke-opacity: 1;"/></g><g class="errorbar" style="opacity: 1;"><path class="yerror" d="M476.17,176.46h8m-4,0V177.44m-4,0h8" style="vector-effect: none; stroke-width: 2px; stroke: rgb(218, 165, 27); stroke-opacity: 1;"/></g><g class="errorbar" style="opacity: 1;"><path class="yerror" d="M539.63,167.66h8m-4,0V168.49m-4,0h8" style="vector-effect: none; stroke-width: 2px; stroke: rgb(218, 165, 27); stroke-opacity: 1;"/></g><g class="errorbar" style="opacity: 1;"><path class="yerror" d="M603.1,145.77h8m-4,0V148.26m-4,0h8" style="vector-effect: none; stroke-width: 2px; stroke: rgb(218, 165, 27); stroke-opacity: 1;"/></g></g><g class="lines"><path class="js-line" d="M35.9,187.52L289.77,186.41L353.23,185.12L416.7,182.66L480.17,177L543.63,168.03L607.1,146.56" style="vector-effect: none; fill: none; stroke: rgb(218, 165, 27); stroke-opacity: 1; stroke-width: 2px; opacity: 1;"/></g><g class="points"><path class="point" transform="translate(35.9,187.52)" d="M3.9,0L0,3.9L-3.9,0L0,-3.9Z" style="opacity: 1; stroke-width: 0px; fill: rgb(218, 165, 27); fill-opacity: 1;"/><path class="point" transform="translate(99.37,187.34)" d="M3.9,0L0,3.9L-3.9,0L0,-3.9Z" style="opacity: 1; stroke-width: 0px; fill: rgb(218, 165, 27); fill-opacity: 1;"/><path class="point" transform="translate(162.83,187.5)" d="M3.9,0L0,3.9L-3.9,0L0,-3.9Z" style="opacity: 1; stroke-width: 0px; fill: rgb(218, 165, 27); fill-opacity: 1;"/><path class="point" transform="translate(226.3,187.05)" d="M3.9,0L0,3.9L-3.9,0L0,-3.9Z" style="opacity: 1; stroke-width: 0px; fill: rgb(218, 165, 27); fill-opacity: 1;"/><path class="point" transform="translate(289.77,186.41)" d="M3.9,0L0,3.9L-3.9,0L0,-3.9Z" style="opacity: 1; stroke-width: 0px; fill: rgb(218, 165, 27); fill-opacity: 1;"/><path class="point" transform="translate(353.23,185.12)" d="M3.9,0L0,3.9L-3.9,0L0,-3.9Z" style="opacity: 1; stroke-width: 0px; fill: rgb(218, 165, 27); fill-opacity: 1;"/><path class="point" transform="translate(416.7,182.66)" d="M3.9,0L0,3.9L-3.9,0L0,-3.9Z" style="opacity: 1; stroke-width: 0px; fill: rgb(218, 165, 27); fill-opacity: 1;"/><path class="point" transform="translate(480.17,177)" d="M3.9,0L0,3.9L-3.9,0L0,-3.9Z" style="opacity: 1; stroke-width: 0px; fill: rgb(218, 165, 27); fill-opacity: 1;"/><path class="point" transform="translate(543.63,168.03)" d="M3.9,0L0,3.9L-3.9,0L0,-3.9Z" style="opacity: 1; stroke-width: 0px; fill: rgb(218, 165, 27); fill-opacity: 1;"/><path class="point" transform="translate(607.1,146.56)" d="M3.9,0L0,3.9L-3.9,0L0,-3.9Z" style="opacity: 1; stroke-width: 0px; fill: rgb(218, 165, 27); fill-opacity: 1;"/></g><g class="text"/></g><g class="trace scatter trace353230" style="stroke-miterlimit: 2; opacity: 1;"><g class="fills"/><g class="errorbars"><g class="errorbar" style="opacity: 1;"><path class="yerror" d="M31.9,213.91h8m-4,0V214.08m-4,0h8" style="vector-effect: none; stroke-width: 2px; stroke: rgb(47, 138, 196); stroke-opacity: 1;"/></g><g class="errorbar" style="opacity: 1;"><path class="yerror" d="M95.37,213.84h8m-4,0V213.99m-4,0h8" style="vector-effect: none; stroke-width: 2px; stroke: rgb(47, 138, 196); stroke-opacity: 1;"/></g><g class="errorbar" style="opacity: 1;"><path class="yerror" d="M158.83,213.59h8m-4,0V213.71m-4,0h8" style="vector-effect: none; stroke-width: 2px; stroke: rgb(47, 138, 196); stroke-opacity: 1;"/></g><g class="errorbar" style="opacity: 1;"><path class="yerror" d="M222.3,212.99h8m-4,0V213.13m-4,0h8" style="vector-effect: none; stroke-width: 2px; stroke: rgb(47, 138, 196); stroke-opacity: 1;"/></g><g class="errorbar" style="opacity: 1;"><path class="yerror" d="M285.77,212.07h8m-4,0V212.59m-4,0h8" style="vector-effect: none; stroke-width: 2px; stroke: rgb(47, 138, 196); stroke-opacity: 1;"/></g><g class="errorbar" style="opacity: 1;"><path class="yerror" d="M349.23,210.8h8m-4,0V211.33m-4,0h8" style="vector-effect: none; stroke-width: 2px; stroke: rgb(47, 138, 196); stroke-opacity: 1;"/></g><g class="errorbar" style="opacity: 1;"><path class="yerror" d="M412.7,207.86h8m-4,0V208.8m-4,0h8" style="vector-effect: none; stroke-width: 2px; stroke: rgb(47, 138, 196); stroke-opacity: 1;"/></g><g class="errorbar" style="opacity: 1;"><path class="yerror" d="M476.17,201.8h8m-4,0V203.38m-4,0h8" style="vector-effect: none; stroke-width: 2px; stroke: rgb(47, 138, 196); stroke-opacity: 1;"/></g><g class="errorbar" style="opacity: 1;"><path class="yerror" d="M539.63,190.64h8m-4,0V194.12m-4,0h8" style="vector-effect: none; stroke-width: 2px; stroke: rgb(47, 138, 196); stroke-opacity: 1;"/></g><g class="errorbar" style="opacity: 1;"><path class="yerror" d="M603.1,167.88h8m-4,0V169.58m-4,0h8" style="vector-effect: none; stroke-width: 2px; stroke: rgb(47, 138, 196); stroke-opacity: 1;"/></g></g><g class="lines"><path class="js-line" d="M35.9,214.02L226.3,213.05L289.77,212.43L353.23,211.09L416.7,208.29L480.17,202.85L543.63,192.74L607.1,168.72" style="vector-effect: none; fill: none; stroke: rgb(47, 138, 196); stroke-opacity: 1; stroke-width: 2px; opacity: 1;"/></g><g class="points"><path class="point" transform="translate(35.9,214.02)" d="M3.9,0L0,3.9L-3.9,0L0,-3.9Z" style="opacity: 1; stroke-width: 0px; fill: rgb(47, 138, 196); fill-opacity: 1;"/><path class="point" transform="translate(99.37,213.92)" d="M3.9,0L0,3.9L-3.9,0L0,-3.9Z" style="opacity: 1; stroke-width: 0px; fill: rgb(47, 138, 196); fill-opacity: 1;"/><path class="point" transform="translate(162.83,213.64)" d="M3.9,0L0,3.9L-3.9,0L0,-3.9Z" style="opacity: 1; stroke-width: 0px; fill: rgb(47, 138, 196); fill-opacity: 1;"/><path class="point" transform="translate(226.3,213.05)" d="M3.9,0L0,3.9L-3.9,0L0,-3.9Z" style="opacity: 1; stroke-width: 0px; fill: rgb(47, 138, 196); fill-opacity: 1;"/><path class="point" transform="translate(289.77,212.43)" d="M3.9,0L0,3.9L-3.9,0L0,-3.9Z" style="opacity: 1; stroke-width: 0px; fill: rgb(47, 138, 196); fill-opacity: 1;"/><path class="point" transform="translate(353.23,211.09)" d="M3.9,0L0,3.9L-3.9,0L0,-3.9Z" style="opacity: 1; stroke-width: 0px; fill: rgb(47, 138, 196); fill-opacity: 1;"/><path class="point" transform="translate(416.7,208.29)" d="M3.9,0L0,3.9L-3.9,0L0,-3.9Z" style="opacity: 1; stroke-width: 0px; fill: rgb(47, 138, 196); fill-opacity: 1;"/><path class="point" transform="translate(480.17,202.85)" d="M3.9,0L0,3.9L-3.9,0L0,-3.9Z" style="opacity: 1; stroke-width: 0px; fill: rgb(47, 138, 196); fill-opacity: 1;"/><path class="point" transform="translate(543.63,192.74)" d="M3.9,0L0,3.9L-3.9,0L0,-3.9Z" style="opacity: 1; stroke-width: 0px; fill: rgb(47, 138, 196); fill-opacity: 1;"/><path class="point" transform="translate(607.1,168.72)" d="M3.9,0L0,3.9L-3.9,0L0,-3.9Z" style="opacity: 1; stroke-width: 0px; fill: rgb(47, 138, 196); fill-opacity: 1;"/></g><g class="text"/></g><g class="trace scatter tracecdc1ee" style="stroke-miterlimit: 2; opacity: 1;"><g class="fills"/><g class="errorbars"><g class="errorbar" style="opacity: 1;"><path class="yerror" d="M31.9,216.38h8m-4,0V216.43m-4,0h8" style="vector-effect: none; stroke-width: 2px; stroke: rgb(204, 97, 176); stroke-opacity: 1;"/></g><g class="errorbar" style="opacity: 1;"><path class="yerror" d="M95.37,216h8m-4,0V216.12m-4,0h8" style="vector-effect: none; stroke-width: 2px; stroke: rgb(204, 97, 176); stroke-opacity: 1;"/></g><g class="errorbar" style="opacity: 1;"><path class="yerror" d="M158.83,215.51h8m-4,0V215.56m-4,0h8" style="vector-effect: none; stroke-width: 2px; stroke: rgb(204, 97, 176); stroke-opacity: 1;"/></g><g class="errorbar" style="opacity: 1;"><path class="yerror" d="M222.3,214.19h8m-4,0V214.36m-4,0h8" style="vector-effect: none; stroke-width: 2px; stroke: rgb(204, 97, 176); stroke-opacity: 1;"/></g><g class="errorbar" style="opacity: 1;"><path class="yerror" d="M285.77,211.57h8m-4,0V211.71m-4,0h8" style="vector-effect: none; stroke-width: 2px; stroke: rgb(204, 97, 176); stroke-opacity: 1;"/></g><g class="errorbar" style="opacity: 1;"><path class="yerror" d="M349.23,206.17h8m-4,0V206.82m-4,0h8" style="vector-effect: none; stroke-width: 2px; stroke: rgb(204, 97, 176); stroke-opacity: 1;"/></g><g class="errorbar" style="opacity: 1;"><path class="yerror" d="M412.7,194.63h8m-4,0V195.72m-4,0h8" style="vector-effect: none; stroke-width: 2px; stroke: rgb(204, 97, 176); stroke-opacity: 1;"/></g><g class="errorbar" style="opacity: 1;"><path class="yerror" d="M476.17,168.3h8m-4,0V169.58m-4,0h8" style="vector-effect: none; stroke-width: 2px; stroke: rgb(204, 97, 176); stroke-opacity: 1;"/></g><g class="errorbar" style="opacity: 1;"><path class="yerror" d="M539.63,119.71h8m-4,0V121.1m-4,0h8" style="vector-effect: none; stroke-width: 2px; stroke: rgb(204, 97, 176); stroke-opacity: 1;"/></g><g class="errorbar" style="opacity: 1;"><path class="yerror" d="M603.1,13.95h8m-4,0V15.66m-4,0h8" style="vector-effect: none; stroke-width: 2px; stroke: rgb(204, 97, 176); stroke-opacity: 1;"/></g></g><g class="lines"><path class="js-line" d="M35.9,216.39L162.83,215.54L226.3,214.3L289.77,211.65L353.23,206.45L416.7,195.08L480.17,169.25L543.63,120.44L607.1,14.7" style="vector-effect: none; fill: none; stroke: rgb(204, 97, 176); stroke-opacity: 1; stroke-width: 2px; opacity: 1;"/></g><g class="points"><path class="point" transform="translate(35.9,216.39)" d="M3.9,0L0,3.9L-3.9,0L0,-3.9Z" style="opacity: 1; stroke-width: 0px; fill: rgb(204, 97, 176); fill-opacity: 1;"/><path class="point" transform="translate(99.37,216.08)" d="M3.9,0L0,3.9L-3.9,0L0,-3.9Z" style="opacity: 1; stroke-width: 0px; fill: rgb(204, 97, 176); fill-opacity: 1;"/><path class="point" transform="translate(162.83,215.54)" d="M3.9,0L0,3.9L-3.9,0L0,-3.9Z" style="opacity: 1; stroke-width: 0px; fill: rgb(204, 97, 176); fill-opacity: 1;"/><path class="point" transform="translate(226.3,214.3)" d="M3.9,0L0,3.9L-3.9,0L0,-3.9Z" style="opacity: 1; stroke-width: 0px; fill: rgb(204, 97, 176); fill-opacity: 1;"/><path class="point" transform="translate(289.77,211.65)" d="M3.9,0L0,3.9L-3.9,0L0,-3.9Z" style="opacity: 1; stroke-width: 0px; fill: rgb(204, 97, 176); fill-opacity: 1;"/><path class="point" transform="translate(353.23,206.45)" d="M3.9,0L0,3.9L-3.9,0L0,-3.9Z" style="opacity: 1; stroke-width: 0px; fill: rgb(204, 97, 176); fill-opacity: 1;"/><path class="point" transform="translate(416.7,195.08)" d="M3.9,0L0,3.9L-3.9,0L0,-3.9Z" style="opacity: 1; stroke-width: 0px; fill: rgb(204, 97, 176); fill-opacity: 1;"/><path class="point" transform="translate(480.17,169.25)" d="M3.9,0L0,3.9L-3.9,0L0,-3.9Z" style="opacity: 1; stroke-width: 0px; fill: rgb(204, 97, 176); fill-opacity: 1;"/><path class="point" transform="translate(543.63,120.44)" d="M3.9,0L0,3.9L-3.9,0L0,-3.9Z" style="opacity: 1; stroke-width: 0px; fill: rgb(204, 97, 176); fill-opacity: 1;"/><path class="point" transform="translate(607.1,14.7)" d="M3.9,0L0,3.9L-3.9,0L0,-3.9Z" style="opacity: 1; stroke-width: 0px; fill: rgb(204, 97, 176); fill-opacity: 1;"/></g><g class="text"/></g></g></g></g><path class="xlines-above crisp" d="M79,319.5H723" style="fill: none; stroke-width: 1px; stroke: rgb(36, 36, 36); stroke-opacity: 1;"/><path class="ylines-above crisp" d="M79.5,100V319" style="fill: none; stroke-width: 1px; stroke: rgb(36, 36, 36); stroke-opacity: 1;"/><g class="overlines-above"/><g class="xaxislayer-above"><path class="xtick ticks crisp" d="M0,320v5" transform="translate(115.9,0)" style="stroke: rgb(68, 68, 68); stroke-opacity: 1; stroke-width: 1px;"/><path class="xtick ticks crisp" d="M0,320v5" transform="translate(179.37,0)" style="stroke: rgb(68, 68, 68); stroke-opacity: 1; stroke-width: 1px;"/><path class="xtick ticks crisp" d="M0,320v5" transform="translate(242.83,0)" style="stroke: rgb(68, 68, 68); stroke-opacity: 1; stroke-width: 1px;"/><path class="xtick ticks crisp" d="M0,320v5" transform="translate(306.3,0)" style="stroke: rgb(68, 68, 68); stroke-opacity: 1; stroke-width: 1px;"/><path class="xtick ticks crisp" d="M0,320v5" transform="translate(369.77,0)" style="stroke: rgb(68, 68, 68); stroke-opacity: 1; stroke-width: 1px;"/><path class="xtick ticks crisp" d="M0,320v5" transform="translate(433.23,0)" style="stroke: rgb(68, 68, 68); stroke-opacity: 1; stroke-width: 1px;"/><path class="xtick ticks crisp" d="M0,320v5" transform="translate(496.7,0)" style="stroke: rgb(68, 68, 68); stroke-opacity: 1; stroke-width: 1px;"/><path class="xtick ticks crisp" d="M0,320v5" transform="translate(560.1700000000001,0)" style="stroke: rgb(68, 68, 68); stroke-opacity: 1; stroke-width: 1px;"/><path class="xtick ticks crisp" d="M0,320v5" transform="translate(623.63,0)" style="stroke: rgb(68, 68, 68); stroke-opacity: 1; stroke-width: 1px;"/><path class="xtick ticks crisp" d="M0,320v5" transform="translate(687.1,0)" style="stroke: rgb(68, 68, 68); stroke-opacity: 1; stroke-width: 1px;"/><g class="xtick"><text text-anchor="start" x="0" y="344.2" transform="translate(115.9,0) rotate(29.999999999999996,0,336.2)" style="font-family: 'Open Sans', verdana, arial, sans-serif; font-size: 16px; fill: rgb(36, 36, 36); fill-opacity: 1; white-space: pre; opacity: 1;">input-x1.sqlite (4 MB)</text></g><g class="xtick"><text text-anchor="start" x="0" y="344.2" transform="translate(179.37,0) rotate(29.999999999999996,0,336.2)" style="font-family: 'Open Sans', verdana, arial, sans-serif; font-size: 16px; fill: rgb(36, 36, 36); fill-opacity: 1; white-space: pre; opacity: 1;">input-x2.sqlite (8 MB)</text></g><g class="xtick"><text text-anchor="start" x="0" y="344.2" transform="translate(242.83,0) rotate(29.999999999999996,0,336.2)" style="font-family: 'Open Sans', verdana, arial, sans-serif; font-size: 16px; fill: rgb(36, 36, 36); fill-opacity: 1; white-space: pre; opacity: 1;">input-x4.sqlite (15 MB)</text></g><g class="xtick"><text text-anchor="start" x="0" y="344.2" transform="translate(306.3,0) rotate(29.999999999999996,0,336.2)" style="font-family: 'Open Sans', verdana, arial, sans-serif; font-size: 16px; fill: rgb(36, 36, 36); fill-opacity: 1; white-space: pre; opacity: 1;">input-x8.sqlite (30 MB)</text></g><g class="xtick"><text text-anchor="start" x="0" y="344.2" transform="translate(369.77,0) rotate(29.999999999999996,0,336.2)" style="font-family: 'Open Sans', verdana, arial, sans-serif; font-size: 16px; fill: rgb(36, 36, 36); fill-opacity: 1; white-space: pre; opacity: 1;">input-x16.sqlite (60 MB)</text></g><g class="xtick"><text text-anchor="start" x="0" y="344.2" transform="translate(433.23,0) rotate(29.999999999999996,0,336.2)" style="font-family: 'Open Sans', verdana, arial, sans-serif; font-size: 16px; fill: rgb(36, 36, 36); fill-opacity: 1; white-space: pre; opacity: 1;">input-x32.sqlite (119 MB)</text></g><g class="xtick"><text text-anchor="start" x="0" y="344.2" transform="translate(496.7,0) rotate(29.999999999999996,0,336.2)" style="font-family: 'Open Sans', verdana, arial, sans-serif; font-size: 16px; fill: rgb(36, 36, 36); fill-opacity: 1; white-space: pre; opacity: 1;">input-x64.sqlite (239 MB)</text></g><g class="xtick"><text text-anchor="start" x="0" y="344.2" transform="translate(560.1700000000001,0) rotate(29.999999999999996,0,336.2)" style="font-family: 'Open Sans', verdana, arial, sans-serif; font-size: 16px; fill: rgb(36, 36, 36); fill-opacity: 1; white-space: pre; opacity: 1;">input-x128.sqlite (477 MB)</text></g><g class="xtick"><text text-anchor="start" x="0" y="344.2" transform="translate(623.63,0) rotate(29.999999999999996,0,336.2)" style="font-family: 'Open Sans', verdana, arial, sans-serif; font-size: 16px; fill: rgb(36, 36, 36); fill-opacity: 1; white-space: pre; opacity: 1;">input-x256.sqlite (955 MB)</text></g><g class="xtick"><text text-anchor="start" x="0" y="344.2" transform="translate(687.1,0) rotate(29.999999999999996,0,336.2)" style="font-family: 'Open Sans', verdana, arial, sans-serif; font-size: 16px; fill: rgb(36, 36, 36); fill-opacity: 1; white-space: pre; opacity: 1;">input-x512.sqlite (1909 MB)</text></g></g><g class="yaxislayer-above"><path class="ytick ticks crisp" d="M79,0h-5" transform="translate(0,319)" style="stroke: rgb(68, 68, 68); stroke-opacity: 1; stroke-width: 1px;"/><path class="ytick ticks crisp" d="M79,0h-5" transform="translate(0,245.3)" style="stroke: rgb(68, 68, 68); stroke-opacity: 1; stroke-width: 1px;"/><path class="ytick ticks crisp" d="M79,0h-5" transform="translate(0,171.6)" style="stroke: rgb(68, 68, 68); stroke-opacity: 1; stroke-width: 1px;"/><g class="ytick"><text text-anchor="end" x="70.8" y="5.6" transform="translate(0,319)" style="font-family: 'Open Sans', verdana, arial, sans-serif; font-size: 16px; fill: rgb(36, 36, 36); fill-opacity: 1; white-space: pre; opacity: 1;">0</text></g><g class="ytick"><text text-anchor="end" x="70.8" y="5.6" style="font-family: 'Open Sans', verdana, arial, sans-serif; font-size: 16px; fill: rgb(36, 36, 36); fill-opacity: 1; white-space: pre; opacity: 1;" transform="translate(0,245.3)">50</text></g><g class="ytick"><text text-anchor="end" x="70.8" y="5.6" style="font-family: 'Open Sans', verdana, arial, sans-serif; font-size: 16px; fill: rgb(36, 36, 36); fill-opacity: 1; white-space: pre; opacity: 1;" transform="translate(0,171.6)">100</text></g></g><g class="overaxes-above"/></g></g><g class="polarlayer"/><g class="smithlayer"/><g class="ternarylayer"/><g class="geolayer"/><g class="funnelarealayer"/><g class="pielayer"/><g class="iciclelayer"/><g class="treemaplayer"/><g class="sunburstlayer"/><g class="glimages"/><defs id="topdefs-de9746"><g class="clips"/><clipPath id="legendde9746"><rect width="247" height="82" x="0" y="0"/></clipPath></defs><g class="layer-above"><g class="imagelayer"/><g class="shapelayer"/></g><g class="infolayer"><g class="legend" pointer-events="all" transform="translate(86.43,104.38000000000001)"><rect class="bg" shape-rendering="crispEdges" width="247" height="82" x="0" y="0" style="stroke: rgb(68, 68, 68); stroke-opacity: 1; fill: rgb(255, 255, 255); fill-opacity: 0.8; stroke-width: 0px;"/><g class="scrollbox" transform="" clip-path="url(#legendde9746)"><g class="groups" transform=""><g class="traces" transform="translate(0,16.9)" style="opacity: 1;"><text class="legendtext" text-anchor="start" x="40" y="6.24" style="font-family: 'Open Sans', verdana, arial, sans-serif; font-size: 16px; fill: rgb(36, 36, 36); fill-opacity: 1; white-space: pre;">CytoTable (multiprocess)</text><g class="layers" style="opacity: 1;"><g class="legendfill"/><g class="legendlines"><path class="js-line" d="M5,0h30" style="fill: none; stroke: rgb(218, 165, 27); stroke-opacity: 1; stroke-width: 2px;"/></g><g class="legendsymbols"><g class="legendpoints"><path class="scatterpts" transform="translate(20,0)" d="M3.9,0L0,3.9L-3.9,0L0,-3.9Z" style="opacity: 1; stroke-width: 0px; fill: rgb(218, 165, 27); fill-opacity: 1;"/></g></g></g><rect class="legendtoggle" x="0" y="-11.9" width="242" height="23.8" style="fill: rgb(0, 0, 0); fill-opacity: 0;"/></g></g><g class="groups" transform=""><g class="traces" transform="translate(0,40.7)" style="opacity: 1;"><text class="legendtext" text-anchor="start" x="40" y="6.24" style="font-family: 'Open Sans', verdana, arial, sans-serif; font-size: 16px; fill: rgb(36, 36, 36); fill-opacity: 1; white-space: pre;">CytoTable (multithread)</text><g class="layers" style="opacity: 1;"><g class="legendfill"/><g class="legendlines"><path class="js-line" d="M5,0h30" style="fill: none; stroke: rgb(47, 138, 196); stroke-opacity: 1; stroke-width: 2px;"/></g><g class="legendsymbols"><g class="legendpoints"><path class="scatterpts" transform="translate(20,0)" d="M3.9,0L0,3.9L-3.9,0L0,-3.9Z" style="opacity: 1; stroke-width: 0px; fill: rgb(47, 138, 196); fill-opacity: 1;"/></g></g></g><rect class="legendtoggle" x="0" y="-11.9" width="242" height="23.8" style="fill: rgb(0, 0, 0); fill-opacity: 0;"/></g></g><g class="groups" transform=""><g class="traces" transform="translate(0,64.5)" style="opacity: 1;"><text class="legendtext" text-anchor="start" x="40" y="6.24" style="font-family: 'Open Sans', verdana, arial, sans-serif; font-size: 16px; fill: rgb(36, 36, 36); fill-opacity: 1; white-space: pre;">Pycytominer</text><g class="layers" style="opacity: 1;"><g class="legendfill"/><g class="legendlines"><path class="js-line" d="M5,0h30" style="fill: none; stroke: rgb(204, 97, 176); stroke-opacity: 1; stroke-width: 2px;"/></g><g class="legendsymbols"><g class="legendpoints"><path class="scatterpts" transform="translate(20,0)" d="M3.9,0L0,3.9L-3.9,0L0,-3.9Z" style="opacity: 1; stroke-width: 0px; fill: rgb(204, 97, 176); fill-opacity: 1;"/></g></g></g><rect class="legendtoggle" x="0" y="-11.9" width="242" height="23.8" style="fill: rgb(0, 0, 0); fill-opacity: 0;"/></g></g></g><rect class="scrollbar" rx="20" ry="3" width="0" height="0" x="0" y="0" style="fill: rgb(128, 139, 164); fill-opacity: 1;"/></g><g class="g-gtitle"><text class="gtitle" x="45" y="50" text-anchor="start" dy="0em" style="opacity: 1; font-family: 'Open Sans', verdana, arial, sans-serif; font-size: 22px; fill: rgb(36, 36, 36); fill-opacity: 1; white-space: pre;">CytoTable and Pycytominer SQLite Processing Time with Min/Max Errors</text></g><g class="g-xtitle"><text class="xtitle" x="401.5" y="487.63203125" text-anchor="middle" style="opacity: 1; font-family: 'Open Sans', verdana, arial, sans-serif; font-size: 19px; fill: rgb(36, 36, 36); fill-opacity: 1; white-space: pre;">Input File</text></g><g class="g-ytitle"><text class="ytitle" transform="rotate(-90,19.13125,209.5)" x="19.13125" y="209.5" text-anchor="middle" style="opacity: 1; font-family: 'Open Sans', verdana, arial, sans-serif; font-size: 19px; fill: rgb(36, 36, 36); fill-opacity: 1; white-space: pre;">Seconds</text></g></g></svg>