<svg class="main-svg" xmlns="http://www.w3.org/2000/svg" xmlns:xlink="http://www.w3.org/1999/xlink" width="900" height="500" style="" viewBox="0 0 900 500"><rect x="0" y="0" width="900" height="500" style="fill: rgb(255, 255, 255); fill-opacity: 1;"/><defs id="defs-a33869"><g class="clips"><clipPath id="clipa33869xyplot" class="plotclip"><rect width="665" height="230"/></clipPath><clipPath class="axesclip" id="clipa33869x"><rect x="80" y="0" width="665" height="500"/></clipPath><clipPath class="axesclip" id="clipa33869y"><rect x="0" y="100" width="900" height="230"/></clipPath><clipPath class="axesclip" id="clipa33869xy"><rect x="80" y="100" width="665" height="230"/></clipPath></g><g class="gradients"/><g class="patterns"/></defs><g class="bglayer"/><g class="layer-below"><g class="imagelayer"/><g class="shapelayer"/></g><g class="cartesianlayer"><g class="subplot xy"><g class="layer-subplot"><g class="shapelayer"/><g class="imagelayer"/></g><g class="minor-gridlayer"><g class="x"/><g class="y"/></g><g class="gridlayer"><g class="x"/><g class="y"/></g><g class="zerolinelayer"/><g class="layer-between"><g class="shapelayer"/><g class="imagelayer"/></g><path class="xlines-below"/><path class="ylines-below"/><g class="overlines-below"/><g class="xaxislayer-below"/><g class="yaxislayer-below"/><g class="overaxes-below"/><g class="overplot"><g class="xy" transform="translate(80,100)" clip-path="url(#clipa33869xyplot)"><g class="scatterlayer mlayer"><g class="trace scatter trace252740" style="stroke-miterlimit: 2; opacity: 1;"><g class="fills"/><g class="errorbars"><g class="errorbar" style="opacity: 1;"><path class="yerror" d="M33,227.04h8m-4,0V227.05m-4,0h8" style="vector-effect: none; stroke-width: 2px; stroke: rgb(218, 165, 27); stroke-opacity: 1;"/></g><g class="errorbar" style="opacity: 1;"><path class="yerror" d="M78.46,227.02h8m-4,0V227.04m-4,0h8" style="vector-effect: none; stroke-width: 2px; stroke: rgb(218, 165, 27); stroke-opacity: 1;"/></g><g class="errorbar" style="opacity: 1;"><path class="yerror" d="M123.92,227.01h8m-4,0V227.03m-4,0h8" style="vector-effect: none; stroke-width: 2px; stroke: rgb(218, 165, 27); stroke-opacity: 1;"/></g><g class="errorbar" style="opacity: 1;"><path class="yerror" d="M169.38,226.78h8m-4,0V226.99m-4,0h8" style="vector-effect: none; stroke-width: 2px; stroke: rgb(218, 165, 27); stroke-opacity: 1;"/></g><g class="errorbar" style="opacity: 1;"><path class="yerror" d="M214.85,226.74h8m-4,0V226.78m-4,0h8" style="vector-effect: none; stroke-width: 2px; stroke: rgb(218, 165, 27); stroke-opacity: 1;"/></g><g class="errorbar" style="opacity: 1;"><path class="yerror" d="M260.31,225.34h8m-4,0V226.6m-4,0h8" style="vector-effect: none; stroke-width: 2px; stroke: rgb(218, 165, 27); stroke-opacity: 1;"/></g><g class="errorbar" style="opacity: 1;"><path class="yerror" d="M305.77,224.45h8m-4,0V225.29m-4,0h8" style="vector-effect: none; stroke-width: 2px; stroke: rgb(218, 165, 27); stroke-opacity: 1;"/></g><g class="errorbar" style="opacity: 1;"><path class="yerror" d="M351.23,222.61h8m-4,0V224.22m-4,0h8" style="vector-effect: none; stroke-width: 2px; stroke: rgb(218, 165, 27); stroke-opacity: 1;"/></g><g class="errorbar" style="opacity: 1;"><path class="yerror" d="M396.69,219.7h8m-4,0V221.87m-4,0h8" style="vector-effect: none; stroke-width: 2px; stroke: rgb(218, 165, 27); stroke-opacity: 1;"/></g><g class="errorbar" style="opacity: 1;"><path class="yerror" d="M442.15,214.59h8m-4,0V216.63m-4,0h8" style="vector-effect: none; stroke-width: 2px; stroke: rgb(218, 165, 27); stroke-opacity: 1;"/></g><g class="errorbar" style="opacity: 1;"><path class="yerror" d="M487.62,209.2h8m-4,0V211.55m-4,0h8" style="vector-effect: none; stroke-width: 2px; stroke: rgb(218, 165, 27); stroke-opacity: 1;"/></g><g class="errorbar" style="opacity: 1;"><path class="yerror" d="M533.08,205.29h8m-4,0V208.32m-4,0h8" style="vector-effect: none; stroke-width: 2px; stroke: rgb(218, 165, 27); stroke-opacity: 1;"/></g><g class="errorbar" style="opacity: 1;"><path class="yerror" d="M578.54,205.76h8m-4,0V207.79m-4,0h8" style="vector-effect: none; stroke-width: 2px; stroke: rgb(218, 165, 27); stroke-opacity: 1;"/></g><g class="errorbar" style="opacity: 1;"><path class="yerror" d="M624,204.9h8m-4,0V205.95m-4,0h8" style="vector-effect: none; stroke-width: 2px; stroke: rgb(218, 165, 27); stroke-opacity: 1;"/></g></g><g class="lines"><path class="js-line" d="M37,227.04L218.85,226.76L264.31,226.18L355.23,223.26L400.69,220.24L446.15,215.87L491.62,210.3L537.08,206.84L582.54,206.9L628,205.48" style="vector-effect: none; fill: none; stroke: rgb(218, 165, 27); stroke-opacity: 1; stroke-width: 2px; opacity: 1;"/></g><g class="points"><path class="point" transform="translate(37,227.04)" d="M3.9,0L0,3.9L-3.9,0L0,-3.9Z" style="opacity: 1; stroke-width: 0px; fill: rgb(218, 165, 27); fill-opacity: 1;"/><path class="point" transform="translate(82.46,227.03)" d="M3.9,0L0,3.9L-3.9,0L0,-3.9Z" style="opacity: 1; stroke-width: 0px; fill: rgb(218, 165, 27); fill-opacity: 1;"/><path class="point" transform="translate(127.92,227.02)" d="M3.9,0L0,3.9L-3.9,0L0,-3.9Z" style="opacity: 1; stroke-width: 0px; fill: rgb(218, 165, 27); fill-opacity: 1;"/><path class="point" transform="translate(173.38,226.95)" d="M3.9,0L0,3.9L-3.9,0L0,-3.9Z" style="opacity: 1; stroke-width: 0px; fill: rgb(218, 165, 27); fill-opacity: 1;"/><path class="point" transform="translate(218.85,226.76)" d="M3.9,0L0,3.9L-3.9,0L0,-3.9Z" style="opacity: 1; stroke-width: 0px; fill: rgb(218, 165, 27); fill-opacity: 1;"/><path class="point" transform="translate(264.31,226.18)" d="M3.9,0L0,3.9L-3.9,0L0,-3.9Z" style="opacity: 1; stroke-width: 0px; fill: rgb(218, 165, 27); fill-opacity: 1;"/><path class="point" transform="translate(309.77,224.9)" d="M3.9,0L0,3.9L-3.9,0L0,-3.9Z" style="opacity: 1; stroke-width: 0px; fill: rgb(218, 165, 27); fill-opacity: 1;"/><path class="point" transform="translate(355.23,223.26)" d="M3.9,0L0,3.9L-3.9,0L0,-3.9Z" style="opacity: 1; stroke-width: 0px; fill: rgb(218, 165, 27); fill-opacity: 1;"/><path class="point" transform="translate(400.69,220.24)" d="M3.9,0L0,3.9L-3.9,0L0,-3.9Z" style="opacity: 1; stroke-width: 0px; fill: rgb(218, 165, 27); fill-opacity: 1;"/><path class="point" transform="translate(446.15,215.87)" d="M3.9,0L0,3.9L-3.9,0L0,-3.9Z" style="opacity: 1; stroke-width: 0px; fill: rgb(218, 165, 27); fill-opacity: 1;"/><path class="point" transform="translate(491.62,210.3)" d="M3.9,0L0,3.9L-3.9,0L0,-3.9Z" style="opacity: 1; stroke-width: 0px; fill: rgb(218, 165, 27); fill-opacity: 1;"/><path class="point" transform="translate(537.08,206.84)" d="M3.9,0L0,3.9L-3.9,0L0,-3.9Z" style="opacity: 1; stroke-width: 0px; fill: rgb(218, 165, 27); fill-opacity: 1;"/><path class="point" transform="translate(582.54,206.9)" d="M3.9,0L0,3.9L-3.9,0L0,-3.9Z" style="opacity: 1; stroke-width: 0px; fill: rgb(218, 165, 27); fill-opacity: 1;"/><path class="point" transform="translate(628,205.48)" d="M3.9,0L0,3.9L-3.9,0L0,-3.9Z" style="opacity: 1; stroke-width: 0px; fill: rgb(218, 165, 27); fill-opacity: 1;"/></g><g class="text"/></g><g class="trace scatter tracecce381" style="stroke-miterlimit: 2; opacity: 1;"><g class="fills"/><g class="errorbars"><g class="errorbar" style="opacity: 1;"><path class="yerror" d="M33,227.65h8m-4,0V227.78m-4,0h8" style="vector-effect: none; stroke-width: 2px; stroke: rgb(47, 138, 196); stroke-opacity: 1;"/></g><g class="errorbar" style="opacity: 1;"><path class="yerror" d="M78.46,227.56h8m-4,0V227.75m-4,0h8" style="vector-effect: none; stroke-width: 2px; stroke: rgb(47, 138, 196); stroke-opacity: 1;"/></g><g class="errorbar" style="opacity: 1;"><path class="yerror" d="M123.92,227.41h8m-4,0V227.74m-4,0h8" style="vector-effect: none; stroke-width: 2px; stroke: rgb(47, 138, 196); stroke-opacity: 1;"/></g><g class="errorbar" style="opacity: 1;"><path class="yerror" d="M169.38,227.34h8m-4,0V227.7m-4,0h8" style="vector-effect: none; stroke-width: 2px; stroke: rgb(47, 138, 196); stroke-opacity: 1;"/></g><g class="errorbar" style="opacity: 1;"><path class="yerror" d="M214.85,226.98h8m-4,0V227.51m-4,0h8" style="vector-effect: none; stroke-width: 2px; stroke: rgb(47, 138, 196); stroke-opacity: 1;"/></g><g class="errorbar" style="opacity: 1;"><path class="yerror" d="M260.31,226.5h8m-4,0V226.86m-4,0h8" style="vector-effect: none; stroke-width: 2px; stroke: rgb(47, 138, 196); stroke-opacity: 1;"/></g><g class="errorbar" style="opacity: 1;"><path class="yerror" d="M305.77,224.88h8m-4,0V225.43m-4,0h8" style="vector-effect: none; stroke-width: 2px; stroke: rgb(47, 138, 196); stroke-opacity: 1;"/></g><g class="errorbar" style="opacity: 1;"><path class="yerror" d="M351.23,223.08h8m-4,0V224.01m-4,0h8" style="vector-effect: none; stroke-width: 2px; stroke: rgb(47, 138, 196); stroke-opacity: 1;"/></g><g class="errorbar" style="opacity: 1;"><path class="yerror" d="M396.69,218.86h8m-4,0V221.36m-4,0h8" style="vector-effect: none; stroke-width: 2px; stroke: rgb(47, 138, 196); stroke-opacity: 1;"/></g><g class="errorbar" style="opacity: 1;"><path class="yerror" d="M442.15,213.18h8m-4,0V214.37m-4,0h8" style="vector-effect: none; stroke-width: 2px; stroke: rgb(47, 138, 196); stroke-opacity: 1;"/></g><g class="errorbar" style="opacity: 1;"><path class="yerror" d="M487.62,204.76h8m-4,0V206.6m-4,0h8" style="vector-effect: none; stroke-width: 2px; stroke: rgb(47, 138, 196); stroke-opacity: 1;"/></g><g class="errorbar" style="opacity: 1;"><path class="yerror" d="M533.08,190.95h8m-4,0V192.99m-4,0h8" style="vector-effect: none; stroke-width: 2px; stroke: rgb(47, 138, 196); stroke-opacity: 1;"/></g><g class="errorbar" style="opacity: 1;"><path class="yerror" d="M578.54,189.69h8m-4,0V191.73m-4,0h8" style="vector-effect: none; stroke-width: 2px; stroke: rgb(47, 138, 196); stroke-opacity: 1;"/></g><g class="errorbar" style="opacity: 1;"><path class="yerror" d="M624,185.77h8m-4,0V188.48m-4,0h8" style="vector-effect: none; stroke-width: 2px; stroke: rgb(47, 138, 196); stroke-opacity: 1;"/></g></g><g class="lines"><path class="js-line" d="M37,227.74L218.85,227.28L264.31,226.68L355.23,223.44L400.69,220.09L446.15,213.72L491.62,205.27L537.08,192.22L582.54,190.56L628,186.78" style="vector-effect: none; fill: none; stroke: rgb(47, 138, 196); stroke-opacity: 1; stroke-width: 2px; opacity: 1;"/></g><g class="points"><path class="point" transform="translate(37,227.74)" d="M3.9,0L0,3.9L-3.9,0L0,-3.9Z" style="opacity: 1; stroke-width: 0px; fill: rgb(47, 138, 196); fill-opacity: 1;"/><path class="point" transform="translate(82.46,227.67)" d="M3.9,0L0,3.9L-3.9,0L0,-3.9Z" style="opacity: 1; stroke-width: 0px; fill: rgb(47, 138, 196); fill-opacity: 1;"/><path class="point" transform="translate(127.92,227.67)" d="M3.9,0L0,3.9L-3.9,0L0,-3.9Z" style="opacity: 1; stroke-width: 0px; fill: rgb(47, 138, 196); fill-opacity: 1;"/><path class="point" transform="translate(173.38,227.51)" d="M3.9,0L0,3.9L-3.9,0L0,-3.9Z" style="opacity: 1; stroke-width: 0px; fill: rgb(47, 138, 196); fill-opacity: 1;"/><path class="point" transform="translate(218.85,227.28)" d="M3.9,0L0,3.9L-3.9,0L0,-3.9Z" style="opacity: 1; stroke-width: 0px; fill: rgb(47, 138, 196); fill-opacity: 1;"/><path class="point" transform="translate(264.31,226.68)" d="M3.9,0L0,3.9L-3.9,0L0,-3.9Z" style="opacity: 1; stroke-width: 0px; fill: rgb(47, 138, 196); fill-opacity: 1;"/><path class="point" transform="translate(309.77,225.27)" d="M3.9,0L0,3.9L-3.9,0L0,-3.9Z" style="opacity: 1; stroke-width: 0px; fill: rgb(47, 138, 196); fill-opacity: 1;"/><path class="point" transform="translate(355.23,223.44)" d="M3.9,0L0,3.9L-3.9,0L0,-3.9Z" style="opacity: 1; stroke-width: 0px; fill: rgb(47, 138, 196); fill-opacity: 1;"/><path class="point" transform="translate(400.69,220.09)" d="M3.9,0L0,3.9L-3.9,0L0,-3.9Z" style="opacity: 1; stroke-width: 0px; fill: rgb(47, 138, 196); fill-opacity: 1;"/><path class="point" transform="translate(446.15,213.72)" d="M3.9,0L0,3.9L-3.9,0L0,-3.9Z" style="opacity: 1; stroke-width: 0px; fill: rgb(47, 138, 196); fill-opacity: 1;"/><path class="point" transform="translate(491.62,205.27)" d="M3.9,0L0,3.9L-3.9,0L0,-3.9Z" style="opacity: 1; stroke-width: 0px; fill: rgb(47, 138, 196); fill-opacity: 1;"/><path class="point" transform="translate(537.08,192.22)" d="M3.9,0L0,3.9L-3.9,0L0,-3.9Z" style="opacity: 1; stroke-width: 0px; fill: rgb(47, 138, 196); fill-opacity: 1;"/><path class="point" transform="translate(582.54,190.56)" d="M3.9,0L0,3.9L-3.9,0L0,-3.9Z" style="opacity: 1; stroke-width: 0px; fill: rgb(47, 138, 196); fill-opacity: 1;"/><path class="point" transform="translate(628,186.78)" d="M3.9,0L0,3.9L-3.9,0L0,-3.9Z" style="opacity: 1; stroke-width: 0px; fill: rgb(47, 138, 196); fill-opacity: 1;"/></g><g class="text"/></g><g class="trace scatter traced5fba3" style="stroke-miterlimit: 2; opacity: 1;"><g class="fills"/><g class="errorbars"><g class="errorbar" style="opacity: 1;"><path class="yerror" d="M33,228.92h8m-4,0V228.95m-4,0h8" style="vector-effect: none; stroke-width: 2px; stroke: rgb(204, 97, 176); stroke-opacity: 1;"/></g><g class="errorbar" style="opacity: 1;"><path class="yerror" d="M78.46,228.9h8m-4,0V228.95m-4,0h8" style="vector-effect: none; stroke-width: 2px; stroke: rgb(204, 97, 176); stroke-opacity: 1;"/></g><g class="errorbar" style="opacity: 1;"><path class="yerror" d="M123.92,228.87h8m-4,0V228.88m-4,0h8" style="vector-effect: none; stroke-width: 2px; stroke: rgb(204, 97, 176); stroke-opacity: 1;"/></g><g class="errorbar" style="opacity: 1;"><path class="yerror" d="M169.38,228.8h8m-4,0V228.8m-4,0h8" style="vector-effect: none; stroke-width: 2px; stroke: rgb(204, 97, 176); stroke-opacity: 1;"/></g><g class="errorbar" style="opacity: 1;"><path class="yerror" d="M214.85,228.65h8m-4,0V228.66m-4,0h8" style="vector-effect: none; stroke-width: 2px; stroke: rgb(204, 97, 176); stroke-opacity: 1;"/></g><g class="errorbar" style="opacity: 1;"><path class="yerror" d="M260.31,228.34h8m-4,0V228.37m-4,0h8" style="vector-effect: none; stroke-width: 2px; stroke: rgb(204, 97, 176); stroke-opacity: 1;"/></g><g class="errorbar" style="opacity: 1;"><path class="yerror" d="M305.77,227.62h8m-4,0V227.75m-4,0h8" style="vector-effect: none; stroke-width: 2px; stroke: rgb(204, 97, 176); stroke-opacity: 1;"/></g><g class="errorbar" style="opacity: 1;"><path class="yerror" d="M351.23,226.05h8m-4,0V226.7m-4,0h8" style="vector-effect: none; stroke-width: 2px; stroke: rgb(204, 97, 176); stroke-opacity: 1;"/></g><g class="errorbar" style="opacity: 1;"><path class="yerror" d="M396.69,224.03h8m-4,0V224.57m-4,0h8" style="vector-effect: none; stroke-width: 2px; stroke: rgb(204, 97, 176); stroke-opacity: 1;"/></g><g class="errorbar" style="opacity: 1;"><path class="yerror" d="M442.15,217.95h8m-4,0V219.88m-4,0h8" style="vector-effect: none; stroke-width: 2px; stroke: rgb(204, 97, 176); stroke-opacity: 1;"/></g><g class="errorbar" style="opacity: 1;"><path class="yerror" d="M487.62,203.79h8m-4,0V206.5m-4,0h8" style="vector-effect: none; stroke-width: 2px; stroke: rgb(204, 97, 176); stroke-opacity: 1;"/></g><g class="errorbar" style="opacity: 1;"><path class="yerror" d="M533.08,176.97h8m-4,0V181.28m-4,0h8" style="vector-effect: none; stroke-width: 2px; stroke: rgb(204, 97, 176); stroke-opacity: 1;"/></g><g class="errorbar" style="opacity: 1;"><path class="yerror" d="M578.54,122.31h8m-4,0V127.18m-4,0h8" style="vector-effect: none; stroke-width: 2px; stroke: rgb(204, 97, 176); stroke-opacity: 1;"/></g><g class="errorbar" style="opacity: 1;"><path class="yerror" d="M624,12.09h8m-4,0V19.09m-4,0h8" style="vector-effect: none; stroke-width: 2px; stroke: rgb(204, 97, 176); stroke-opacity: 1;"/></g></g><g class="lines"><path class="js-line" d="M37,228.93L264.31,228.34L309.77,227.73L355.23,226.42L400.69,224.28L446.15,218.82L491.62,205.22L537.08,179.12L582.54,124.18L628,15.25" style="vector-effect: none; fill: none; stroke: rgb(204, 97, 176); stroke-opacity: 1; stroke-width: 2px; opacity: 1;"/></g><g class="points"><path class="point" transform="translate(37,228.93)" d="M3.9,0L0,3.9L-3.9,0L0,-3.9Z" style="opacity: 1; stroke-width: 0px; fill: rgb(204, 97, 176); fill-opacity: 1;"/><path class="point" transform="translate(82.46,228.92)" d="M3.9,0L0,3.9L-3.9,0L0,-3.9Z" style="opacity: 1; stroke-width: 0px; fill: rgb(204, 97, 176); fill-opacity: 1;"/><path class="point" transform="translate(127.92,228.88)" d="M3.9,0L0,3.9L-3.9,0L0,-3.9Z" style="opacity: 1; stroke-width: 0px; fill: rgb(204, 97, 176); fill-opacity: 1;"/><path class="point" transform="translate(173.38,228.8)" d="M3.9,0L0,3.9L-3.9,0L0,-3.9Z" style="opacity: 1; stroke-width: 0px; fill: rgb(204, 97, 176); fill-opacity: 1;"/><path class="point" transform="translate(218.85,228.65)" d="M3.9,0L0,3.9L-3.9,0L0,-3.9Z" style="opacity: 1; stroke-width: 0px; fill: rgb(204, 97, 176); fill-opacity: 1;"/><path class="point" transform="translate(264.31,228.34)" d="M3.9,0L0,3.9L-3.9,0L0,-3.9Z" style="opacity: 1; stroke-width: 0px; fill: rgb(204, 97, 176); fill-opacity: 1;"/><path class="point" transform="translate(309.77,227.73)" d="M3.9,0L0,3.9L-3.9,0L0,-3.9Z" style="opacity: 1; stroke-width: 0px; fill: rgb(204, 97, 176); fill-opacity: 1;"/><path class="point" transform="translate(355.23,226.42)" d="M3.9,0L0,3.9L-3.9,0L0,-3.9Z" style="opacity: 1; stroke-width: 0px; fill: rgb(204, 97, 176); fill-opacity: 1;"/><path class="point" transform="translate(400.69,224.28)" d="M3.9,0L0,3.9L-3.9,0L0,-3.9Z" style="opacity: 1; stroke-width: 0px; fill: rgb(204, 97, 176); fill-opacity: 1;"/><path class="point" transform="translate(446.15,218.82)" d="M3.9,0L0,3.9L-3.9,0L0,-3.9Z" style="opacity: 1; stroke-width: 0px; fill: rgb(204, 97, 176); fill-opacity: 1;"/><path class="point" transform="translate(491.62,205.22)" d="M3.9,0L0,3.9L-3.9,0L0,-3.9Z" style="opacity: 1; stroke-width: 0px; fill: rgb(204, 97, 176); fill-opacity: 1;"/><path class="point" transform="translate(537.08,179.12)" d="M3.9,0L0,3.9L-3.9,0L0,-3.9Z" style="opacity: 1; stroke-width: 0px; fill: rgb(204, 97, 176); fill-opacity: 1;"/><path class="point" transform="translate(582.54,124.18)" d="M3.9,0L0,3.9L-3.9,0L0,-3.9Z" style="opacity: 1; stroke-width: 0px; fill: rgb(204, 97, 176); fill-opacity: 1;"/><path class="point" transform="translate(628,15.25)" d="M3.9,0L0,3.9L-3.9,0L0,-3.9Z" style="opacity: 1; stroke-width: 0px; fill: rgb(204, 97, 176); fill-opacity: 1;"/></g><g class="text"/></g></g></g></g><path class="xlines-above crisp" d="M79,330.5H745" style="fill: none; stroke-width: 1px; stroke: rgb(36, 36, 36); stroke-opacity: 1;"/><path class="ylines-above crisp" d="M79.5,100V330" style="fill: none; stroke-width: 1px; stroke: rgb(36, 36, 36); stroke-opacity: 1;"/><g class="overlines-above"/><g class="xaxislayer-above"><path class="xtick ticks crisp" d="M0,331v5" transform="translate(117,0)" style="stroke: rgb(68, 68, 68); stroke-opacity: 1; stroke-width: 1px;"/><path class="xtick ticks crisp" d="M0,331v5" transform="translate(162.45999999999998,0)" style="stroke: rgb(68, 68, 68); stroke-opacity: 1; stroke-width: 1px;"/><path class="xtick ticks crisp" d="M0,331v5" transform="translate(207.92000000000002,0)" style="stroke: rgb(68, 68, 68); stroke-opacity: 1; stroke-width: 1px;"/><path class="xtick ticks crisp" d="M0,331v5" transform="translate(253.38,0)" style="stroke: rgb(68, 68, 68); stroke-opacity: 1; stroke-width: 1px;"/><path class="xtick ticks crisp" d="M0,331v5" transform="translate(298.85,0)" style="stroke: rgb(68, 68, 68); stroke-opacity: 1; stroke-width: 1px;"/><path class="xtick ticks crisp" d="M0,331v5" transform="translate(344.31,0)" style="stroke: rgb(68, 68, 68); stroke-opacity: 1; stroke-width: 1px;"/><path class="xtick ticks crisp" d="M0,331v5" transform="translate(389.77,0)" style="stroke: rgb(68, 68, 68); stroke-opacity: 1; stroke-width: 1px;"/><path class="xtick ticks crisp" d="M0,331v5" transform="translate(435.23,0)" style="stroke: rgb(68, 68, 68); stroke-opacity: 1; stroke-width: 1px;"/><path class="xtick ticks crisp" d="M0,331v5" transform="translate(480.69,0)" style="stroke: rgb(68, 68, 68); stroke-opacity: 1; stroke-width: 1px;"/><path class="xtick ticks crisp" d="M0,331v5" transform="translate(526.15,0)" style="stroke: rgb(68, 68, 68); stroke-opacity: 1; stroke-width: 1px;"/><path class="xtick ticks crisp" d="M0,331v5" transform="translate(571.62,0)" style="stroke: rgb(68, 68, 68); stroke-opacity: 1; stroke-width: 1px;"/><path class="xtick ticks crisp" d="M0,331v5" transform="translate(617.08,0)" style="stroke: rgb(68, 68, 68); stroke-opacity: 1; stroke-width: 1px;"/><path class="xtick ticks crisp" d="M0,331v5" transform="translate(662.54,0)" style="stroke: rgb(68, 68, 68); stroke-opacity: 1; stroke-width: 1px;"/><path class="xtick ticks crisp" d="M0,331v5" transform="translate(708,0)" style="stroke: rgb(68, 68, 68); stroke-opacity: 1; stroke-width: 1px;"/><g class="xtick"><text text-anchor="start" x="0" y="355.2" transform="translate(117,0) rotate(29.999999999999996,0,347.2)" style="font-family: 'Open Sans', verdana, arial, sans-serif; font-size: 16px; fill: rgb(36, 36, 36); fill-opacity: 1; white-space: pre; opacity: 1;">input_csv (1 MB)</text></g><g class="xtick"><text text-anchor="start" x="0" y="355.2" transform="translate(162.45999999999998,0) rotate(29.999999999999996,0,347.2)" style="font-family: 'Open Sans', verdana, arial, sans-serif; font-size: 16px; fill: rgb(36, 36, 36); fill-opacity: 1; white-space: pre; opacity: 1;">input_csv-x2 (3 MB)</text></g><g class="xtick"><text text-anchor="start" x="0" y="355.2" transform="translate(207.92000000000002,0) rotate(29.999999999999996,0,347.2)" style="font-family: 'Open Sans', verdana, arial, sans-serif; font-size: 16px; fill: rgb(36, 36, 36); fill-opacity: 1; white-space: pre; opacity: 1;">input_csv-x4 (5 MB)</text></g><g class="xtick"><text text-anchor="start" x="0" y="355.2" transform="translate(253.38,0) rotate(29.999999999999996,0,347.2)" style="font-family: 'Open Sans', verdana, arial, sans-serif; font-size: 16px; fill: rgb(36, 36, 36); fill-opacity: 1; white-space: pre; opacity: 1;">input_csv-x8 (11 MB)</text></g><g class="xtick"><text text-anchor="start" x="0" y="355.2" transform="translate(298.85,0) rotate(29.999999999999996,0,347.2)" style="font-family: 'Open Sans', verdana, arial, sans-serif; font-size: 16px; fill: rgb(36, 36, 36); fill-opacity: 1; white-space: pre; opacity: 1;">input_csv-x16 (21 MB)</text></g><g class="xtick"><text text-anchor="start" x="0" y="355.2" transform="translate(344.31,0) rotate(29.999999999999996,0,347.2)" style="font-family: 'Open Sans', verdana, arial, sans-serif; font-size: 16px; fill: rgb(36, 36, 36); fill-opacity: 1; white-space: pre; opacity: 1;">input_csv-x32 (43 MB)</text></g><g class="xtick"><text text-anchor="start" x="0" y="355.2" transform="translate(389.77,0) rotate(29.999999999999996,0,347.2)" style="font-family: 'Open Sans', verdana, arial, sans-serif; font-size: 16px; fill: rgb(36, 36, 36); fill-opacity: 1; white-space: pre; opacity: 1;">input_csv-x64 (85 MB)</text></g><g class="xtick"><text text-anchor="start" x="0" y="355.2" transform="translate(435.23,0) rotate(29.999999999999996,0,347.2)" style="font-family: 'Open Sans', verdana, arial, sans-serif; font-size: 16px; fill: rgb(36, 36, 36); fill-opacity: 1; white-space: pre; opacity: 1;">input_csv-x128 (170 MB)</text></g><g class="xtick"><text text-anchor="start" x="0" y="355.2" transform="translate(480.69,0) rotate(29.999999999999996,0,347.2)" style="font-family: 'Open Sans', verdana, arial, sans-serif; font-size: 16px; fill: rgb(36, 36, 36); fill-opacity: 1; white-space: pre; opacity: 1;">input_csv-x256 (341 MB)</text></g><g class="xtick"><text text-anchor="start" x="0" y="355.2" transform="translate(526.15,0) rotate(29.999999999999996,0,347.2)" style="font-family: 'Open Sans', verdana, arial, sans-serif; font-size: 16px; fill: rgb(36, 36, 36); fill-opacity: 1; white-space: pre; opacity: 1;">input_csv-x512 (682 MB)</text></g><g class="xtick"><text text-anchor="start" x="0" y="355.2" transform="translate(571.62,0) rotate(29.999999999999996,0,347.2)" style="font-family: 'Open Sans', verdana, arial, sans-serif; font-size: 16px; fill: rgb(36, 36, 36); fill-opacity: 1; white-space: pre; opacity: 1;">input_csv-x1024 (1365 MB)</text></g><g class="xtick"><text text-anchor="start" x="0" y="355.2" transform="translate(617.08,0) rotate(29.999999999999996,0,347.2)" style="font-family: 'Open Sans', verdana, arial, sans-serif; font-size: 16px; fill: rgb(36, 36, 36); fill-opacity: 1; white-space: pre; opacity: 1;">input_csv-x2048 (2730 MB)</text></g><g class="xtick"><text text-anchor="start" x="0" y="355.2" transform="translate(662.54,0) rotate(29.999999999999996,0,347.2)" style="font-family: 'Open Sans', verdana, arial, sans-serif; font-size: 16px; fill: rgb(36, 36, 36); fill-opacity: 1; white-space: pre; opacity: 1;">input_csv-x4096 (5461 MB)</text></g><g class="xtick"><text text-anchor="start" x="0" y="355.2" transform="translate(708,0) rotate(29.999999999999996,0,347.2)" style="font-family: 'Open Sans', verdana, arial, sans-serif; font-size: 16px; fill: rgb(36, 36, 36); fill-opacity: 1; white-space: pre; opacity: 1;">input_csv-x8192 (10922 MB)</text></g></g><g class="yaxislayer-above"><path class="ytick ticks crisp" d="M79,0h-5" transform="translate(0,330)" style="stroke: rgb(68, 68, 68); stroke-opacity: 1; stroke-width: 1px;"/><path class="ytick ticks crisp" d="M79,0h-5" transform="translate(0,282.61)" style="stroke: rgb(68, 68, 68); stroke-opacity: 1; stroke-width: 1px;"/><path class="ytick ticks crisp" d="M79,0h-5" transform="translate(0,235.21)" style="stroke: rgb(68, 68, 68); stroke-opacity: 1; stroke-width: 1px;"/><path class="ytick ticks crisp" d="M79,0h-5" transform="translate(0,187.82)" style="stroke: rgb(68, 68, 68); stroke-opacity: 1; stroke-width: 1px;"/><path class="ytick ticks crisp" d="M79,0h-5" transform="translate(0,140.43)" style="stroke: rgb(68, 68, 68); stroke-opacity: 1; stroke-width: 1px;"/><g class="ytick"><text text-anchor="end" x="70.8" y="5.6" transform="translate(0,330)" style="font-family: 'Open Sans', verdana, arial, sans-serif; font-size: 16px; fill: rgb(36, 36, 36); fill-opacity: 1; white-space: pre; opacity: 1;">0</text></g><g class="ytick"><text text-anchor="end" x="70.8" y="5.6" style="font-family: 'Open Sans', verdana, arial, sans-serif; font-size: 16px; fill: rgb(36, 36, 36); fill-opacity: 1; white-space: pre; opacity: 1;" transform="translate(0,282.61)">5</text></g><g class="ytick"><text text-anchor="end" x="70.8" y="5.6" style="font-family: 'Open Sans', verdana, arial, sans-serif; font-size: 16px; fill: rgb(36, 36, 36); fill-opacity: 1; white-space: pre; opacity: 1;" transform="translate(0,235.21)">10</text></g><g class="ytick"><text text-anchor="end" x="70.8" y="5.6" style="font-family: 'Open Sans', verdana, arial, sans-serif; font-size: 16px; fill: rgb(36, 36, 36); fill-opacity: 1; white-space: pre; opacity: 1;" transform="translate(0,187.82)">15</text></g><g class="ytick"><text text-anchor="end" x="70.8" y="5.6" style="font-family: 'Open Sans', verdana, arial, sans-serif; font-size: 16px; fill: rgb(36, 36, 36); fill-opacity: 1; white-space: pre; opacity: 1;" transform="translate(0,140.43)">20</text></g></g><g class="overaxes-above"/></g></g><g class="polarlayer"/><g class="smithlayer"/><g class="ternarylayer"/><g class="geolayer"/><g class="funnelarealayer"/><g class="pielayer"/><g class="iciclelayer"/><g class="treemaplayer"/><g class="sunburstlayer"/><g class="glimages"/><defs id="topdefs-a33869"><g class="clips"/><clipPath id="legenda33869"><rect width="222" height="82" x="0" y="0"/></clipPath></defs><g class="layer-above"><g class="imagelayer"/><g class="shapelayer"/></g><g class="infolayer"><g class="legend" pointer-events="all" transform="translate(86.65,104.60000000000001)"><rect class="bg" shape-rendering="crispEdges" width="222" height="82" x="0" y="0" style="stroke: rgb(68, 68, 68); stroke-opacity: 1; fill: rgb(255, 255, 255); fill-opacity: 0.8; stroke-width: 0px;"/><g class="scrollbox" transform="" clip-path="url(#legenda33869)"><g class="groups" transform=""><g class="traces" transform="translate(0,16.9)" style="opacity: 1;"><text class="legendtext" text-anchor="start" x="40" y="6.24" style="font-family: 'Open Sans', verdana, arial, sans-serif; font-size: 16px; fill: rgb(36, 36, 36); fill-opacity: 1; white-space: pre;">CytoTable (multiprocess)</text><g class="layers" style="opacity: 1;"><g class="legendfill"/><g class="legendlines"><path class="js-line" d="M5,0h30" style="fill: none; stroke: rgb(218, 165, 27); stroke-opacity: 1; stroke-width: 2px;"/></g><g class="legendsymbols"><g class="legendpoints"><path class="scatterpts" transform="translate(20,0)" d="M3.9,0L0,3.9L-3.9,0L0,-3.9Z" style="opacity: 1; stroke-width: 0px; fill: rgb(218, 165, 27); fill-opacity: 1;"/></g></g></g><rect class="legendtoggle" x="0" y="-11.9" width="216.0625" height="23.8" style="fill: rgb(0, 0, 0); fill-opacity: 0;"/></g></g><g class="groups" transform=""><g class="traces" transform="translate(0,40.7)" style="opacity: 1;"><text class="legendtext" text-anchor="start" x="40" y="6.24" style="font-family: 'Open Sans', verdana, arial, sans-serif; font-size: 16px; fill: rgb(36, 36, 36); fill-opacity: 1; white-space: pre;">CytoTable (multithread)</text><g class="layers" style="opacity: 1;"><g class="legendfill"/><g class="legendlines"><path class="js-line" d="M5,0h30" style="fill: none; stroke: rgb(47, 138, 196); stroke-opacity: 1; stroke-width: 2px;"/></g><g class="legendsymbols"><g class="legendpoints"><path class="scatterpts" transform="translate(20,0)" d="M3.9,0L0,3.9L-3.9,0L0,-3.9Z" style="opacity: 1; stroke-width: 0px; fill: rgb(47, 138, 196); fill-opacity: 1;"/></g></g></g><rect class="legendtoggle" x="0" y="-11.9" width="216.0625" height="23.8" style="fill: rgb(0, 0, 0); fill-opacity: 0;"/></g></g><g class="groups" transform=""><g class="traces" transform="translate(0,64.5)" style="opacity: 1;"><text class="legendtext" text-anchor="start" x="40" y="6.24" style="font-family: 'Open Sans', verdana, arial, sans-serif; font-size: 16px; fill: rgb(36, 36, 36); fill-opacity: 1; white-space: pre;">Pandas</text><g class="layers" style="opacity: 1;"><g class="legendfill"/><g class="legendlines"><path class="js-line" d="M5,0h30" style="fill: none; stroke: rgb(204, 97, 176); stroke-opacity: 1; stroke-width: 2px;"/></g><g class="legendsymbols"><g class="legendpoints"><path class="scatterpts" transform="translate(20,0)" d="M3.9,0L0,3.9L-3.9,0L0,-3.9Z" style="opacity: 1; stroke-width: 0px; fill: rgb(204, 97, 176); fill-opacity: 1;"/></g></g></g><rect class="legendtoggle" x="0" y="-11.9" width="216.0625" height="23.8" style="fill: rgb(0, 0, 0); fill-opacity: 0;"/></g></g></g><rect class="scrollbar" rx="20" ry="3" width="0" height="0" x="0" y="0" style="fill: rgb(128, 139, 164); fill-opacity: 1;"/></g><g class="g-gtitle"><text class="gtitle" x="45" y="50" text-anchor="start" dy="0em" style="opacity: 1; font-family: 'Open Sans', verdana, arial, sans-serif; font-size: 22px; fill: rgb(36, 36, 36); fill-opacity: 1; white-space: pre;">CytoTable and Pandas CSV Peak Memory with Min/Max Errors</text></g><g class="g-xtitle"><text class="xtitle" x="412.5" y="487.6759765625" text-anchor="middle" style="opacity: 1; font-family: 'Open Sans', verdana, arial, sans-serif; font-size: 19px; fill: rgb(36, 36, 36); fill-opacity: 1; white-space: pre;">Input File</text></g><g class="g-ytitle"><text class="ytitle" transform="rotate(-90,31.85,215)" x="31.85" y="215" text-anchor="middle" style="opacity: 1; font-family: 'Open Sans', verdana, arial, sans-serif; font-size: 19px; fill: rgb(36, 36, 36); fill-opacity: 1; white-space: pre;">Gigabytes (GB)</text></g></g></svg>
